<svg width="14" height="4" viewBox="0 0 14 4" fill="none" xmlns="http://www.w3.org/2000/svg">
<g id="Group 550">
<g id="Group 549">
<path id="Vector" d="M7 3C7.55228 3 8 2.55228 8 2C8 1.44772 7.55228 1 7 1C6.44772 1 6 1.44772 6 2C6 2.55228 6.44772 3 7 3Z" fill="#0F1419" stroke="#0F1419" stroke-linecap="round" stroke-linejoin="round"/>
<path id="Vector_2" d="M12 3C12.5523 3 13 2.55228 13 2C13 1.44772 12.5523 1 12 1C11.4477 1 11 1.44772 11 2C11 2.55228 11.4477 3 12 3Z" fill="#0F1419" stroke="#0F1419" stroke-linecap="round" stroke-linejoin="round"/>
<path id="Vector_3" d="M2 3C2.55228 3 3 2.55228 3 2C3 1.44772 2.55228 1 2 1C1.44772 1 1 1.44772 1 2C1 2.55228 1.44772 3 2 3Z" fill="#0F1419" stroke="#0F1419" stroke-linecap="round" stroke-linejoin="round"/>
</g>
</g>
</svg>
