<svg width="25" height="24" viewBox="0 0 25 24" fill="none" xmlns="http://www.w3.org/2000/svg">
<g id="Group 548">
<path id="Vector" d="M23.5 12C23.5 18.0751 18.5751 23 12.5 23C6.42487 23 1.5 18.0751 1.5 12C1.5 5.92487 6.42487 1 12.5 1C18.5751 1 23.5 5.92487 23.5 12Z" stroke="#0F1419" stroke-width="2" stroke-linecap="round" stroke-linejoin="round"/>
<g id="Group 549">
<path id="Vector_2" d="M13 13C13.5523 13 14 12.5523 14 12C14 11.4477 13.5523 11 13 11C12.4477 11 12 11.4477 12 12C12 12.5523 12.4477 13 13 13Z" fill="#0F1419" stroke="#0F1419" stroke-linecap="round" stroke-linejoin="round"/>
<path id="Vector_3" d="M18 13C18.5523 13 19 12.5523 19 12C19 11.4477 18.5523 11 18 11C17.4477 11 17 11.4477 17 12C17 12.5523 17.4477 13 18 13Z" fill="#0F1419" stroke="#0F1419" stroke-linecap="round" stroke-linejoin="round"/>
<path id="Vector_4" d="M8 13C8.55228 13 9 12.5523 9 12C9 11.4477 8.55228 11 8 11C7.44772 11 7 11.4477 7 12C7 12.5523 7.44772 13 8 13Z" fill="#0F1419" stroke="#0F1419" stroke-linecap="round" stroke-linejoin="round"/>
</g>
</g>
</svg>
