<svg width="15" height="4" viewBox="0 0 15 4" fill="none" xmlns="http://www.w3.org/2000/svg">
<g id="Group 544">
<path id="Vector" d="M7.5 2.86538C7.97794 2.86538 8.36538 2.47794 8.36538 2C8.36538 1.52206 7.97794 1.13461 7.5 1.13461C7.02206 1.13461 6.63461 1.52206 6.63461 2C6.63461 2.47794 7.02206 2.86538 7.5 2.86538Z" fill="#5B7083" stroke="#5B7083" stroke-width="1.15385" stroke-linecap="round" stroke-linejoin="round"/>
<path id="Vector_2" d="M13.5577 2.86538C14.0356 2.86538 14.4231 2.47794 14.4231 2C14.4231 1.52206 14.0356 1.13461 13.5577 1.13461C13.0798 1.13461 12.6923 1.52206 12.6923 2C12.6923 2.47794 13.0798 2.86538 13.5577 2.86538Z" fill="#5B7083" stroke="#5B7083" stroke-width="1.15385" stroke-linecap="round" stroke-linejoin="round"/>
<path id="Vector_3" d="M1.4423 2.86538C1.92024 2.86538 2.30769 2.47794 2.30769 2C2.30769 1.52206 1.92024 1.13461 1.4423 1.13461C0.964365 1.13461 0.57692 1.52206 0.57692 2C0.57692 2.47794 0.964365 2.86538 1.4423 2.86538Z" fill="#5B7083" stroke="#5B7083" stroke-width="1.15385" stroke-linecap="round" stroke-linejoin="round"/>
</g>
</svg>
