<svg width="21" height="18" viewBox="0 0 21 18" fill="none" xmlns="http://www.w3.org/2000/svg">
<path id="Vector" d="M17.9453 2.38797C17.5055 1.94794 16.9833 1.59888 16.4086 1.36073C15.8338 1.12258 15.2178 1 14.5956 1C13.9735 1 13.3574 1.12258 12.7827 1.36073C12.2079 1.59888 11.6857 1.94794 11.2459 2.38797L10.3331 3.30075L9.4203 2.38797C8.53189 1.49956 7.32696 1.00046 6.07056 1.00046C4.81416 1.00046 3.60923 1.49956 2.72082 2.38797C1.83241 3.27637 1.33331 4.48131 1.33331 5.73771C1.33331 6.9941 1.83241 8.19904 2.72082 9.08745L3.6336 10.0002L10.3331 16.6997L17.0326 10.0002L17.9453 9.08745C18.3854 8.64763 18.7344 8.12542 18.9726 7.55066C19.2107 6.9759 19.3333 6.35985 19.3333 5.73771C19.3333 5.11556 19.2107 4.49951 18.9726 3.92475C18.7344 3.34999 18.3854 2.82779 17.9453 2.38797V2.38797Z" stroke="#5B7083" stroke-width="1.5" stroke-linecap="round" stroke-linejoin="round"/>
</svg>
