<?xml version="1.0" encoding="UTF-8" standalone="no"?>
<!-- Created with Inkscape (http://www.inkscape.org/) -->

<svg
   xmlns:dc="http://purl.org/dc/elements/1.1/"
   xmlns:cc="http://creativecommons.org/ns#"
   xmlns:rdf="http://www.w3.org/1999/02/22-rdf-syntax-ns#"
   xmlns:svg="http://www.w3.org/2000/svg"
   xmlns="http://www.w3.org/2000/svg"
   xmlns:sodipodi="http://sodipodi.sourceforge.net/DTD/sodipodi-0.dtd"
   xmlns:inkscape="http://www.inkscape.org/namespaces/inkscape"
   width="93.564217"
   height="93.564217"
   id="svg3147"
   version="1.1"
   inkscape:version="0.48.5 r10040"
   sodipodi:docname="174 BNT #124 muslim icon_next4 submit ocal_a koko-@tmg.svg">
  <defs
     id="defs3149" />
  <sodipodi:namedview
     id="base"
     pagecolor="#ffffff"
     bordercolor="#666666"
     borderopacity="1.0"
     inkscape:pageopacity="0.0"
     inkscape:pageshadow="2"
     inkscape:zoom="2.8"
     inkscape:cx="30.808338"
     inkscape:cy="38.685829"
     inkscape:document-units="px"
     inkscape:current-layer="layer1"
     showgrid="false"
     fit-margin-top="0"
     fit-margin-left="0"
     fit-margin-right="0"
     fit-margin-bottom="0"
     inkscape:window-width="1366"
     inkscape:window-height="688"
     inkscape:window-x="-8"
     inkscape:window-y="-8"
     inkscape:window-maximized="1" />
  <metadata
     id="metadata3152">
    <rdf:RDF>
      <cc:Work
         rdf:about="">
        <dc:format>image/svg+xml</dc:format>
        <dc:type
           rdf:resource="http://purl.org/dc/dcmitype/StillImage" />
        <dc:title></dc:title>
      </cc:Work>
    </rdf:RDF>
  </metadata>
  <g
     inkscape:label="Layer 1"
     inkscape:groupmode="layer"
     id="layer1"
     transform="translate(-181.78932,-457.00864)">
    <rect
       ry="0.31012449"
       rx="0.31012449"
       y="457.00864"
       x="181.78932"
       height="93.564217"
       width="93.564217"
       id="rect3282"
       style="color:#000000;fill:#44aa00;fill-opacity:1;fill-rule:nonzero;stroke:none;stroke-width:3.20000005;marker:none;visibility:visible;display:inline;overflow:visible;enable-background:accumulate" />
    <path
       style="fill:#ffffff;stroke:none"
       d="m 227.03299,465.55573 c -5.44812,-0.0164 -10.73404,3.53668 -11.60178,11.79938 l -1.77837,17.04981 c -2.07723,3.15287 -4.13297,4.92068 -6.2102,9.93632 -2.34577,5.81016 -4.3946,11.63484 -5.56095,17.445 l 25.54649,20.2396 27.83298,-18.68705 -5.98437,-19.90085 c -1.81818,-2.81823 -2.78953,-3.31078 -6.52071,-8.80719 l -3.1051,-19.47744 c -1.55113,-5.99584 -7.16987,-9.58112 -12.61799,-9.59758 z m -0.9033,10.89608 c 3.31913,-0.0682 6.73492,0.56752 10.19037,1.609 0.35962,1.30333 0.17081,3.06157 0,4.51651 -0.89095,7.58936 -7.19915,11.80958 -8.89188,11.99697 -1.74478,0.19315 -8.16873,-3.95555 -8.94832,-11.65823 -0.14756,-1.45758 -0.27495,-3.55192 0.0846,-4.85525 2.45483,-1.08447 4.98361,-1.55599 7.56515,-1.609 z"
       id="path3284"
       inkscape:connector-curvature="0" />
  </g>
</svg>
