<svg width="18" height="18" viewBox="0 0 18 18" fill="none" xmlns="http://www.w3.org/2000/svg">
<g id="Group">
<path id="Vector" d="M11.3256 0.978506C11.0228 0.668582 10.661 0.422318 10.2617 0.254183C9.86228 0.0860493 9.43332 -0.000562668 9 -0.000562668C8.56668 -0.000562668 8.13773 0.0860493 7.73835 0.254183C7.33898 0.422318 6.97724 0.668582 6.67439 0.978506L5.97457 1.69633L4.97322 1.68395C4.53977 1.67882 4.10967 1.76041 3.70821 1.92392C3.30675 2.08744 2.94204 2.32957 2.63553 2.63609C2.32901 2.94261 2.08688 3.30732 1.92336 3.70877C1.75985 4.11023 1.67826 4.54033 1.68339 4.97378L1.69464 5.97513L0.979068 6.67495C0.669145 6.9778 0.42288 7.33954 0.254746 7.73891C0.086612 8.13829 0 8.56724 0 9.00056C0 9.43389 0.086612 9.86284 0.254746 10.2622C0.42288 10.6616 0.669145 11.0233 0.979068 11.3262L1.69577 12.026L1.68339 13.0273C1.67826 13.4608 1.75985 13.8909 1.92336 14.2924C2.08688 14.6938 2.32901 15.0585 2.63553 15.365C2.94204 15.6716 3.30675 15.9137 3.70821 16.0772C4.10967 16.2407 4.53977 16.3223 4.97322 16.3172L5.97457 16.3059L6.67439 17.0215C6.97724 17.3314 7.33898 17.5777 7.73835 17.7458C8.13773 17.9139 8.56668 18.0006 9 18.0006C9.43332 18.0006 9.86228 17.9139 10.2617 17.7458C10.661 17.5777 11.0228 17.3314 11.3256 17.0215L12.0254 16.3048L13.0268 16.3172C13.4602 16.3223 13.8903 16.2407 14.2918 16.0772C14.6932 15.9137 15.058 15.6716 15.3645 15.365C15.671 15.0585 15.9131 14.6938 16.0766 14.2924C16.2402 13.8909 16.3217 13.4608 16.3166 13.0273L16.3054 12.026L17.0209 11.3262C17.3309 11.0233 17.5771 10.6616 17.7453 10.2622C17.9134 9.86284 18 9.43389 18 9.00056C18 8.56724 17.9134 8.13829 17.7453 7.73891C17.5771 7.33954 17.3309 6.9778 17.0209 6.67495L16.3042 5.97513L16.3166 4.97378C16.3217 4.54033 16.2402 4.11023 16.0766 3.70877C15.9131 3.30732 15.671 2.94261 15.3645 2.63609C15.058 2.32957 14.6932 2.08744 14.2918 1.92392C13.8903 1.76041 13.4602 1.67882 13.0268 1.68395L12.0254 1.6952L11.3256 0.979631V0.978506ZM11.6485 7.71118L8.27318 11.0865C8.22092 11.1389 8.15884 11.1805 8.0905 11.2088C8.02215 11.2372 7.94888 11.2518 7.87489 11.2518C7.80089 11.2518 7.72762 11.2372 7.65928 11.2088C7.59093 11.1805 7.52885 11.1389 7.4766 11.0865L5.78893 9.39885C5.73662 9.34655 5.69513 9.28445 5.66683 9.21612C5.63852 9.14778 5.62395 9.07453 5.62395 9.00056C5.62395 8.92659 5.63852 8.85335 5.66683 8.78501C5.69513 8.71667 5.73662 8.65458 5.78893 8.60227C5.84123 8.54997 5.90333 8.50848 5.97166 8.48017C6.04 8.45186 6.11325 8.43729 6.18722 8.43729C6.26119 8.43729 6.33443 8.45186 6.40277 8.48017C6.47111 8.50848 6.5332 8.54997 6.58551 8.60227L7.87489 9.89278L10.8519 6.9146C10.9576 6.80897 11.1008 6.74963 11.2502 6.74963C11.3996 6.74963 11.5429 6.80897 11.6485 6.9146C11.7541 7.02024 11.8135 7.1635 11.8135 7.31289C11.8135 7.46228 11.7541 7.60555 11.6485 7.71118Z" fill="#1DA1F2"/>
</g>
</svg>
